<svg width="623" height="115" viewBox="0 0 623 115" fill="none" xmlns="http://www.w3.org/2000/svg">
<mask id="mask0_303_231" style="mask-type:luminance" maskUnits="userSpaceOnUse" x="0" y="0" width="623" height="115">
<path d="M0.382812 0.510254H623V114.323H0.382812V0.510254Z" fill="white"/>
</mask>
<g mask="url(#mask0_303_231)">
<path d="M622.745 44.2396V70.5926H612.46V88.1132H602.174V96.8013H591.889V105.634H571.154V114.322H52.399V105.634H31.8264V96.9395H21.541V88.2513H10.9231V70.5926H0.637695V44.2396H10.9231V26.8633H21.2085V18.1751H31.4938V9.20454H52.2291V0.510254H570.989V9.20454H591.725V17.8927H602.01V26.5808H612.297V44.1014H622.745V44.2396Z" fill="#6D5656"/>
</g>
<path d="M10.923 70.5924V44.2394L21.3783 26.8631L31.8263 18.0306L52.3989 9.20435H570.989L591.555 18.0306L602.01 26.8631L612.458 44.2394V70.5924L602.01 88.113L591.555 96.9393L570.989 105.634H52.3989L31.8263 96.9393L21.3783 88.113L10.923 70.5924Z" fill="#F5F5DC"/>
<path d="M570.991 9.20435V17.8925H52.3989V9.20435H570.991ZM31.8263 26.8631H52.5615V18.1749H31.8263V26.8631ZM52.3989 96.9393V88.2511H31.8263V96.9393H52.3989ZM21.3783 44.2394H31.6636V26.8631H21.3783V44.2394ZM31.8263 88.113V70.5924H21.5409V88.113H31.8263ZM10.923 70.5924H21.2084V44.2394H10.923V70.5924Z" fill="white"/>
<path d="M196.052 73.0636C194.194 73.0636 192.552 72.6921 191.113 71.937C189.685 71.1879 188.584 70.1319 187.804 68.7719C187.019 67.3982 186.629 65.8095 186.629 63.9999V51.4303C186.629 49.6437 187.019 48.0673 187.804 46.7058C188.59 45.3443 189.687 44.3021 191.113 43.5638C192.552 42.8316 194.194 42.4602 196.052 42.4602C197.91 42.4602 199.54 42.8316 200.967 43.5638C202.388 44.2837 203.491 45.309 204.275 46.6337C205.055 47.946 205.451 49.4871 205.451 51.263V51.527C205.45 51.5989 205.435 51.6699 205.406 51.7359C205.377 51.8018 205.336 51.8613 205.284 51.9108C205.188 52.0244 205.067 52.078 204.924 52.078L200.969 52.2454C200.616 52.2454 200.441 52.0781 200.441 51.7419V51.2139C200.441 49.8708 200.033 48.7918 199.218 47.9767C198.415 47.1494 197.359 46.7304 196.054 46.7304C194.711 46.7304 193.632 47.1494 192.817 47.9783C192.003 48.7933 191.594 49.8724 191.594 51.2154V64.359C191.594 65.6898 192.003 66.7581 192.817 67.5731C193.632 68.3882 194.711 68.7965 196.054 68.7965C197.361 68.7965 198.415 68.3882 199.219 67.5731C200.034 66.7581 200.442 65.6898 200.442 64.359V63.7834C200.442 63.4841 200.616 63.3275 200.97 63.3275L204.926 63.4949C205.07 63.4949 205.19 63.5424 205.285 63.6391C205.392 63.7358 205.452 63.8556 205.452 63.9983V64.1656C205.452 65.94 205.056 67.5118 204.277 68.8671C203.491 70.2102 202.39 71.2539 200.969 71.9846C199.542 72.7044 197.906 73.0636 196.054 73.0636H196.052Z" fill="#CD4B33"/>
<path d="M220.665 73.1112C218.795 73.1112 217.128 72.7274 215.678 71.96C214.24 71.1925 213.125 70.1073 212.345 68.6983C211.56 67.2769 211.17 65.6407 211.17 63.7819V51.7419C211.17 49.9077 211.56 48.2822 212.345 46.8731C213.112 45.4821 214.271 44.3477 215.678 43.6114C217.128 42.8439 218.795 42.4602 220.665 42.4602C222.583 42.4602 224.262 42.8439 225.7 43.6114C227.138 44.3789 228.253 45.4702 229.057 46.8731C229.861 48.276 230.256 49.9077 230.256 51.7419V63.7819C230.256 65.6407 229.854 67.2769 229.057 68.6983C228.277 70.0865 227.111 71.2192 225.701 71.96C224.264 72.7274 222.585 73.1112 220.667 73.1112H220.665ZM220.665 68.8425C222.068 68.8425 223.189 68.3989 224.023 67.4995C224.868 66.5877 225.293 65.4242 225.293 63.9983V51.5992C225.293 50.1487 224.868 48.9729 224.023 48.0734C223.189 47.1801 222.069 46.7304 220.667 46.7304C219.306 46.7304 218.208 47.1801 217.381 48.0734C216.554 48.9668 216.135 50.1487 216.135 51.5992V63.9983C216.135 65.4258 216.55 66.5893 217.383 67.4995C218.21 68.3989 219.307 68.8425 220.668 68.8425H220.665Z" fill="#CD4B33"/>
<path d="M253.156 43.1326C253.264 42.91 253.468 42.7964 253.756 42.7964H257.737C257.881 42.7964 258.001 42.844 258.096 42.9407C258.143 42.9877 258.18 43.0437 258.205 43.1055C258.23 43.1672 258.242 43.2333 258.24 43.2998V72.224C258.24 72.3683 258.193 72.488 258.096 72.5832C258.049 72.6303 257.993 72.6674 257.931 72.6922C257.87 72.717 257.803 72.729 257.737 72.7275H253.806C253.661 72.7275 253.542 72.6799 253.446 72.5832C253.399 72.5362 253.362 72.4802 253.337 72.4184C253.313 72.3567 253.301 72.2905 253.302 72.224V51.9338C253.302 51.8264 253.267 51.7665 253.207 51.7665C253.141 51.7543 253.087 51.7849 253.04 51.8632L248.508 59.346C248.395 59.5732 248.197 59.6821 247.909 59.6821H247.094C246.807 59.6821 246.603 59.5747 246.494 59.346L241.962 51.9108C241.915 51.8156 241.855 51.7788 241.795 51.7911C241.735 51.8034 241.7 51.8755 241.7 51.9829V72.2256C241.7 72.3698 241.652 72.4896 241.556 72.5847C241.509 72.6319 241.453 72.6689 241.391 72.6937C241.329 72.7185 241.263 72.7305 241.197 72.729H237.261C237.116 72.729 236.997 72.6814 236.902 72.5847C236.855 72.5378 236.817 72.4817 236.793 72.4199C236.768 72.3582 236.756 72.2921 236.757 72.2256V43.3014C236.757 43.1571 236.805 43.0374 236.902 42.9422C236.949 42.8951 237.005 42.858 237.066 42.8332C237.128 42.8084 237.194 42.7964 237.261 42.7979H241.194C241.482 42.7979 241.678 42.9115 241.794 43.1341L247.404 52.0796C247.482 52.2592 247.56 52.2592 247.643 52.0796L253.156 43.1326ZM281.718 43.1326C281.825 42.91 282.029 42.7964 282.318 42.7964H286.298C286.443 42.7964 286.562 42.844 286.657 42.9407C286.705 42.9877 286.742 43.0437 286.766 43.1055C286.791 43.1672 286.803 43.2333 286.802 43.2998V72.224C286.802 72.3683 286.754 72.488 286.657 72.5832C286.61 72.6303 286.554 72.6674 286.493 72.6922C286.431 72.717 286.365 72.729 286.298 72.7275H282.367C282.223 72.7275 282.103 72.6799 282.008 72.5832C281.961 72.5362 281.924 72.4802 281.899 72.4184C281.874 72.3567 281.862 72.2905 281.864 72.224V51.9338C281.864 51.8264 281.828 51.7665 281.769 51.7665C281.703 51.7543 281.649 51.7849 281.601 51.8632L277.07 59.346C276.956 59.5732 276.758 59.6821 276.47 59.6821H275.655C275.368 59.6821 275.164 59.5747 275.055 59.346L270.524 51.9108C270.476 51.8156 270.416 51.7788 270.357 51.7911C270.297 51.8034 270.261 51.8755 270.261 51.9829V72.2256C270.261 72.3698 270.214 72.4896 270.117 72.5847C270.07 72.6319 270.014 72.6689 269.952 72.6937C269.891 72.7185 269.825 72.7305 269.758 72.729H265.827C265.682 72.729 265.563 72.6814 265.468 72.5847C265.421 72.5378 265.383 72.4817 265.359 72.4199C265.334 72.3582 265.322 72.2921 265.323 72.2256V43.3014C265.323 43.1571 265.371 43.0374 265.468 42.9422C265.515 42.8951 265.571 42.858 265.632 42.8332C265.694 42.8084 265.76 42.7964 265.827 42.7979H269.76C270.048 42.7979 270.245 42.9115 270.36 43.1341L275.97 52.0796C276.048 52.2592 276.126 52.2592 276.209 52.0796L281.718 43.1326Z" fill="#CD4B33"/>
<path d="M294.477 72.7275C294.336 72.7289 294.199 72.6774 294.094 72.5832C293.998 72.4881 293.949 72.3668 293.949 72.224V43.2999C293.949 43.1556 293.997 43.0359 294.094 42.9407C294.199 42.8465 294.336 42.7951 294.477 42.7964H298.41C298.536 42.7964 298.649 42.844 298.746 42.9407C298.854 43.0374 298.913 43.1571 298.913 43.2999V72.224C298.913 72.3683 298.854 72.4881 298.746 72.5832C298.651 72.6799 298.536 72.7275 298.41 72.7275H294.477Z" fill="#CD4B33"/>
<path d="M314.436 73.0637C312.549 73.0637 310.893 72.7275 309.474 72.0568C308.054 71.386 306.945 70.4374 306.165 69.2034C305.38 67.957 304.99 66.5295 304.99 64.9102V63.7835C304.99 63.6392 305.038 63.5195 305.134 63.4244C305.231 63.3292 305.351 63.2801 305.493 63.2801H309.354C309.498 63.2801 309.618 63.3277 309.713 63.4244C309.808 63.5211 309.857 63.6408 309.857 63.7835V64.6477C309.857 65.8833 310.276 66.8779 311.128 67.6454C311.992 68.4129 313.147 68.7966 314.605 68.7966C315.948 68.7966 316.967 68.4543 317.674 67.7651C318.394 67.0821 318.753 66.1826 318.753 65.079C318.753 64.3115 318.549 63.6515 318.153 63.0882C317.757 62.5249 317.181 62.0214 316.451 61.5533C315.731 61.0744 314.617 60.4374 313.118 59.6346L308.923 57.2125C307.869 56.4926 306.969 55.5824 306.237 54.4788C305.518 53.3629 305.159 52.003 305.159 50.402C305.159 47.9554 305.974 46.0244 307.605 44.5985C309.247 43.1771 311.416 42.4634 314.102 42.4634C315.935 42.4634 317.567 42.8164 318.994 43.5194C320.433 44.2086 321.535 45.1925 322.302 46.4695C323.069 47.7466 323.453 49.2217 323.453 50.8825V51.7696C323.454 51.9111 323.403 52.0479 323.309 52.1534C323.214 52.2501 323.092 52.2977 322.95 52.2977H319.089C318.945 52.2977 318.825 52.2501 318.73 52.1534C318.636 52.0479 318.584 51.9111 318.585 51.7696V50.9546C318.585 49.7435 318.167 48.7366 317.339 47.9323C316.512 47.128 315.397 46.7336 314.007 46.7336C312.771 46.7336 311.802 47.0574 311.082 47.6929C310.374 48.3345 310.028 49.2217 310.028 50.3544C310.028 51.1403 310.207 51.805 310.579 52.3452C310.962 52.8733 311.525 53.389 312.28 53.8802C313.029 54.3606 314.174 54.9838 315.708 55.7513L320.24 58.485C321.211 59.145 322.038 59.9892 322.709 61.0268C323.379 62.0644 323.715 63.3476 323.715 64.8641C323.715 67.3768 322.864 69.3737 321.174 70.8595C319.495 72.3346 317.247 73.0668 314.436 73.0668V73.0637Z" fill="#CD4B33"/>
<path d="M338.123 73.0637C336.235 73.0637 334.579 72.7275 333.16 72.0568C331.741 71.386 330.631 70.4374 329.852 69.2034C329.066 67.957 328.676 66.5295 328.676 64.9102V63.7835C328.676 63.6392 328.724 63.5195 328.821 63.4244C328.917 63.3292 329.037 63.2801 329.18 63.2801H333.04C333.185 63.2801 333.304 63.3277 333.399 63.4244C333.495 63.5211 333.544 63.6408 333.544 63.7835V64.6477C333.544 65.8833 333.963 66.8779 334.814 67.6454C335.678 68.4129 336.834 68.7966 338.291 68.7966C339.634 68.7966 340.653 68.4543 341.36 67.7651C342.08 67.0821 342.439 66.1826 342.439 65.079C342.439 64.3115 342.235 63.6515 341.839 63.0882C341.443 62.5249 340.868 62.0214 340.137 61.5533C339.418 61.0744 338.304 60.4374 336.805 59.6346L332.609 57.2125C331.555 56.4926 330.656 55.5824 329.924 54.4788C329.204 53.3629 328.845 52.003 328.845 50.402C328.845 47.9554 329.66 46.0244 331.291 44.5985C332.933 43.1771 335.103 42.4634 337.788 42.4634C339.622 42.4634 341.253 42.8164 342.68 43.5194C344.119 44.2086 345.221 45.1925 345.988 46.4695C346.756 47.7466 347.139 49.2217 347.139 50.8825V51.7696C347.141 51.9111 347.089 52.0479 346.995 52.1534C346.9 52.2501 346.779 52.2977 346.636 52.2977H342.775C342.631 52.2977 342.511 52.2501 342.416 52.1534C342.322 52.0479 342.271 51.9111 342.272 51.7696V50.9546C342.272 49.7435 341.853 48.7366 341.026 47.9323C340.199 47.128 339.083 46.7336 337.693 46.7336C336.458 46.7336 335.488 47.0574 334.768 47.6929C334.061 48.3345 333.714 49.2217 333.714 50.3544C333.714 51.1403 333.894 51.805 334.265 52.3452C334.649 52.8733 335.212 53.389 335.967 53.8802C336.716 54.3606 337.86 54.9838 339.395 55.7513L343.926 58.485C344.897 59.145 345.724 59.9892 346.395 61.0268C347.066 62.0644 347.402 63.3476 347.402 64.8641C347.402 67.3768 346.55 69.3737 344.861 70.8595C343.182 72.3346 340.934 73.0668 338.123 73.0668V73.0637Z" fill="#CD4B33"/>
<path d="M353.991 72.7275C353.849 72.7289 353.713 72.6774 353.607 72.5832C353.512 72.4881 353.463 72.3668 353.463 72.224V43.2999C353.463 43.1556 353.51 43.0359 353.607 42.9407C353.713 42.8465 353.849 42.7951 353.991 42.7964H357.924C358.049 42.7964 358.163 42.844 358.26 42.9407C358.367 43.0374 358.427 43.1571 358.427 43.2999V72.224C358.427 72.3683 358.367 72.4881 358.26 72.5832C358.165 72.6799 358.049 72.7275 357.924 72.7275H353.991Z" fill="#CD4B33"/>
<path d="M374.455 73.1112C372.584 73.1112 370.918 72.7274 369.467 71.96C368.03 71.1925 366.914 70.1073 366.135 68.6983C365.349 67.2769 364.959 65.6407 364.959 63.7819V51.7419C364.959 49.9077 365.349 48.2822 366.135 46.8731C366.901 45.4821 368.06 44.3477 369.467 43.6114C370.918 42.8439 372.584 42.4602 374.455 42.4602C376.373 42.4602 378.051 42.8439 379.489 43.6114C380.927 44.3789 382.043 45.4702 382.847 46.8731C383.651 48.276 384.045 49.9077 384.045 51.7419V63.7819C384.045 65.6407 383.643 67.2769 382.847 68.6983C382.066 70.0865 380.9 71.2192 379.491 71.96C378.053 72.7274 376.374 73.1112 374.456 73.1112H374.455ZM374.455 68.8425C375.857 68.8425 376.979 68.3989 377.812 67.4995C378.658 66.5877 379.083 65.4242 379.083 63.9983V51.5992C379.083 50.1487 378.658 48.9729 377.812 48.0734C376.979 47.1801 375.859 46.7304 374.456 46.7304C373.095 46.7304 371.998 47.1801 371.171 48.0734C370.344 48.9668 369.925 50.1487 369.925 51.5992V63.9983C369.925 65.4258 370.339 66.5893 371.172 67.4995C371.999 68.3989 373.097 68.8425 374.458 68.8425H374.455Z" fill="#CD4B33"/>
<path d="M405.364 43.2999C405.364 43.1556 405.411 43.0359 405.508 42.9407C405.613 42.8465 405.75 42.7951 405.892 42.7964H409.825C409.969 42.7964 410.088 42.844 410.184 42.9407C410.279 43.0374 410.328 43.1571 410.328 43.2999V72.224C410.328 72.3683 410.28 72.488 410.184 72.5832C410.087 72.6784 409.967 72.7275 409.825 72.7275H405.677C405.419 72.7275 405.221 72.6016 405.077 72.3438L395.75 53.1817C395.703 53.1034 395.643 53.0743 395.583 53.0866C395.523 53.0988 395.488 53.171 395.488 53.2784L395.535 72.2256C395.535 72.3698 395.488 72.4896 395.391 72.5847C395.294 72.6799 395.175 72.729 395.032 72.729H391.101C390.959 72.7304 390.823 72.6789 390.717 72.5847C390.622 72.4896 390.573 72.3683 390.573 72.2256V43.3014C390.573 43.1571 390.62 43.0374 390.717 42.9422C390.823 42.848 390.959 42.7966 391.101 42.7979H395.201C395.489 42.7979 395.686 42.93 395.801 43.1817L405.152 62.4158C405.212 62.5125 405.272 62.554 405.319 62.5356C405.379 62.5233 405.416 62.4573 405.416 62.3437L405.364 43.2999Z" fill="#CD4B33"/>
<path d="M425.855 73.0637C423.968 73.0637 422.312 72.7275 420.893 72.0568C419.473 71.386 418.364 70.4374 417.584 69.2034C416.799 67.957 416.409 66.5295 416.409 64.9102V63.7835C416.409 63.6392 416.457 63.5195 416.553 63.4244C416.65 63.3292 416.77 63.2801 416.912 63.2801H420.773C420.917 63.2801 421.037 63.3277 421.132 63.4244C421.227 63.5211 421.276 63.6408 421.276 63.7835V64.6477C421.276 65.8833 421.695 66.8779 422.547 67.6454C423.411 68.4129 424.566 68.7966 426.024 68.7966C427.367 68.7966 428.386 68.4543 429.093 67.7651C429.813 67.0821 430.172 66.1826 430.172 65.079C430.172 64.3115 429.968 63.6515 429.572 63.0882C429.176 62.5249 428.601 62.0214 427.87 61.5533C427.15 61.0744 426.036 60.4374 424.537 59.6346L420.342 57.2125C419.288 56.4926 418.388 55.5824 417.657 54.4788C416.937 53.3629 416.578 52.003 416.578 50.402C416.578 47.9554 417.393 46.0244 419.024 44.5985C420.666 43.1771 422.835 42.4634 425.521 42.4634C427.355 42.4634 428.986 42.8164 430.413 43.5194C431.852 44.2086 432.954 45.1925 433.721 46.4695C434.488 47.7466 434.872 49.2217 434.872 50.8825V51.7696C434.873 51.9111 434.822 52.0479 434.728 52.1534C434.633 52.2501 434.511 52.2977 434.369 52.2977H430.508C430.364 52.2977 430.244 52.2501 430.149 52.1534C430.055 52.0479 430.003 51.9111 430.005 51.7696V50.9546C430.005 49.7435 429.586 48.7366 428.759 47.9323C427.931 47.128 426.816 46.7336 425.426 46.7336C424.19 46.7336 423.221 47.0574 422.501 47.6929C421.794 48.3345 421.447 49.2217 421.447 50.3544C421.447 51.1403 421.626 51.805 421.998 52.3452C422.381 52.8733 422.944 53.389 423.699 53.8802C424.448 54.3606 425.593 54.9838 427.127 55.7513L431.659 58.485C432.63 59.145 433.457 59.9892 434.128 61.0268C434.798 62.0644 435.134 63.3476 435.134 64.8641C435.134 67.3768 434.283 69.3737 432.593 70.8595C430.915 72.3346 428.666 73.0668 425.855 73.0668V73.0637Z" fill="#CD4B33"/>
<mask id="mask1_303_231" style="mask-type:luminance" maskUnits="userSpaceOnUse" x="0" y="0" width="623" height="115">
<path d="M0.382812 0.510254H623V114.323H0.382812V0.510254Z" fill="white"/>
</mask>
<g mask="url(#mask1_303_231)">
<path d="M52.399 18.0308H31.8264V9.20454H52.5616V18.0308H52.399ZM31.8264 18.0308H21.541V26.7251H31.8264V18.0308ZM21.3783 88.1132V96.8013H31.6637V88.1132H21.3783ZM31.8264 96.9395V105.634H52.5616V96.9395H31.8264ZM21.3783 26.8633H10.9231V44.3839H21.2085V26.8633H21.3783ZM10.9231 70.5926V88.1132H21.2085V70.5926H10.9231ZM0.637695 44.2396V70.5926H10.9231V44.2396H0.637695ZM570.991 105.634H591.726V96.9395H570.991V105.634ZM591.557 96.9395H601.842V88.2513H591.557V96.9395ZM602.012 26.8633V18.1751H591.726V26.8633H602.012ZM591.557 18.0308V9.20454H570.821V17.8927H591.557V18.0308ZM602.012 88.1132H612.297V70.5926H602.012V88.1132ZM612.46 44.2396V26.8633H602.174V44.3839H612.46V44.2396ZM612.46 44.2396V70.5926H622.745V44.2396H612.46ZM539.801 9.20454H570.991V0.510254H52.399V9.20454H539.801ZM83.5895 105.634H52.399V114.322H570.989L570.991 105.634H83.5895Z" fill="#6D5656"/>
</g>
<mask id="mask2_303_231" style="mask-type:luminance" maskUnits="userSpaceOnUse" x="0" y="0" width="622" height="115">
<path d="M0 0.925537H621.763V114.51H0V0.925537Z" fill="black" fill-opacity="0.298"/>
</mask>
<g mask="url(#mask2_303_231)">
<mask id="mask3_303_231" style="mask-type:luminance" maskUnits="userSpaceOnUse" x="51" y="17" width="564" height="91">
<path d="M51.061 17.3452H614.941V107.911H51.061V17.3452Z" fill="white"/>
</mask>
<g mask="url(#mask3_303_231)">
<mask id="mask4_303_231" style="mask-type:luminance" maskUnits="userSpaceOnUse" x="52" y="18" width="562" height="90">
<path d="M52.8683 18.8801H613.133V107.37H52.8683V18.8801Z" fill="white"/>
</mask>
<g mask="url(#mask4_303_231)">
<path d="M53.2351 98.6347H571.657V107.329H53.2351V98.6347ZM571.826 98.6347H592.561V89.9466H571.826V98.6347ZM571.826 19.7261V28.4204H592.561V19.7261H571.826ZM592.391 89.8084H602.676V72.2878H592.391V89.8084ZM592.391 28.5585V46.0791H602.676V28.5585H592.391ZM602.846 45.9348V72.2878H613.133V45.9348H602.846Z" fill="#6D5656"/>
</g>
</g>
</g>
</svg>
