<svg width="623" height="114" viewBox="0 0 623 114" fill="none" xmlns="http://www.w3.org/2000/svg">
<mask id="mask0_303_350" style="mask-type:luminance" maskUnits="userSpaceOnUse" x="0" y="0" width="623" height="114">
<path d="M0.382812 0H623V113.813H0.382812V0Z" fill="white"/>
</mask>
<g mask="url(#mask0_303_350)">
<path d="M622.745 43.7293V70.0823H612.46V87.6029H602.174V96.2911H591.889V105.123H571.154V113.812H52.3988V105.123H31.8263V96.4292H21.5409V87.7411H10.9229V70.0823H0.637573V43.7293H10.9229V26.353H21.2083V17.6649H31.4937V8.69429H52.2289V0H570.989V8.69429H591.725V17.3824H602.01V26.0706H612.297V43.5912H622.745V43.7293Z" fill="#6D5656"/>
</g>
<path d="M10.923 70.0821V43.7291L21.3783 26.3528L31.8263 17.5204L52.3989 8.69409H570.989L591.555 17.5204L602.01 26.3528L612.458 43.7291V70.0821L602.01 87.6027L591.555 96.429L570.989 105.123H52.3989L31.8263 96.429L21.3783 87.6027L10.923 70.0821Z" fill="#F5F5DC"/>
<path d="M570.991 8.69409V17.3822H52.3989V8.69409H570.991ZM31.8263 26.3528H52.5615V17.6647H31.8263V26.3528ZM52.3989 96.429V87.7409H31.8263V96.429H52.3989ZM21.3783 43.7291H31.6636V26.3528H21.3783V43.7291ZM31.8263 87.6027V70.0821H21.5409V87.6027H31.8263ZM10.923 70.0821H21.2084V43.7291H10.923V70.0821Z" fill="white"/>
<mask id="mask1_303_350" style="mask-type:luminance" maskUnits="userSpaceOnUse" x="0" y="0" width="623" height="114">
<path d="M0.382812 0H623V113.813H0.382812V0Z" fill="white"/>
</mask>
<g mask="url(#mask1_303_350)">
<path d="M52.3988 17.5206H31.8263V8.69429H52.5615V17.5206H52.3988ZM31.8263 17.5206H21.5409V26.2149H31.8263V17.5206ZM21.3782 87.6029V96.2911H31.6636V87.6029H21.3782ZM31.8263 96.4292V105.123H52.5615V96.4292H31.8263ZM21.3782 26.353H10.9229V43.8736H21.2083V26.353H21.3782ZM10.9229 70.0823V87.6029H21.2083V70.0823H10.9229ZM0.637573 43.7293V70.0823H10.9229V43.7293H0.637573ZM570.991 105.123H591.726V96.4292H570.991V105.123ZM591.556 96.4292H601.842V87.7411H591.556V96.4292ZM602.012 26.353V17.6649H591.726V26.353H602.012ZM591.556 17.5206V8.69429H570.821V17.3824H591.556V17.5206ZM602.012 87.6029H612.297V70.0823H602.012V87.6029ZM612.46 43.7293V26.353H602.174V43.8736H612.46V43.7293ZM612.46 43.7293V70.0823H622.745V43.7293H612.46ZM539.801 8.69429H570.991V0H52.3988V8.69429H539.801ZM83.5893 105.123H52.3988V113.812H570.989L570.991 105.123H83.5893Z" fill="#6D5656"/>
</g>
<mask id="mask2_303_350" style="mask-type:luminance" maskUnits="userSpaceOnUse" x="0" y="0" width="622" height="114">
<path d="M0 0.415039H621.763V114H0V0.415039Z" fill="black" fill-opacity="0.298"/>
</mask>
<g mask="url(#mask2_303_350)">
<mask id="mask3_303_350" style="mask-type:luminance" maskUnits="userSpaceOnUse" x="51" y="16" width="564" height="92">
<path d="M51.061 16.835H614.941V107.4H51.061V16.835Z" fill="white"/>
</mask>
<g mask="url(#mask3_303_350)">
<mask id="mask4_303_350" style="mask-type:luminance" maskUnits="userSpaceOnUse" x="52" y="18" width="562" height="89">
<path d="M52.8684 18.3699H613.134V106.86H52.8684V18.3699Z" fill="white"/>
</mask>
<g mask="url(#mask4_303_350)">
<path d="M53.2353 98.1244H571.658V106.819H53.2353V98.1244ZM571.826 98.1244H592.561V89.4363H571.826V98.1244ZM571.826 19.2158V27.9101H592.561V19.2158H571.826ZM592.391 89.2981H602.676V71.7776H592.391V89.2981ZM592.391 28.0483V45.5688H602.676V28.0483H592.391ZM602.846 45.4245V71.7776H613.134V45.4245H602.846Z" fill="#6D5656"/>
</g>
</g>
</g>
<path d="M270.92 71.802C270.797 71.8033 270.679 71.7519 270.587 71.6577C270.505 71.5625 270.462 71.4412 270.462 71.2985V42.3743C270.462 42.2301 270.503 42.1103 270.587 42.0152C270.679 41.921 270.797 41.8695 270.92 41.8709H274.33C274.439 41.8709 274.538 41.9185 274.622 42.0152C274.715 42.1119 274.767 42.2316 274.767 42.3743V67.3169C274.767 67.4612 274.829 67.5333 274.954 67.5333H285.142C285.267 67.5333 285.371 67.5809 285.453 67.6776C285.547 67.7743 285.599 67.894 285.599 68.0368V71.2985C285.599 71.4428 285.547 71.5625 285.453 71.6577C285.371 71.7544 285.266 71.802 285.142 71.802H270.92Z" fill="#CD4B33"/>
<path d="M297.934 72.1856C296.312 72.1856 294.867 71.8019 293.609 71.0344C292.362 70.267 291.395 69.1818 290.719 67.7727C290.038 66.3514 289.7 64.7151 289.7 62.8563V50.8164C289.7 48.9821 290.038 47.3566 290.719 45.9476C291.384 44.5566 292.389 43.4222 293.609 42.6859C294.867 41.9184 296.312 41.5347 297.934 41.5347C299.597 41.5347 301.053 41.9184 302.3 42.6859C303.547 43.4533 304.514 44.5447 305.212 45.9476C305.909 47.3505 306.251 48.9821 306.251 50.8164V62.8563C306.251 64.7151 305.902 66.3514 305.212 67.7727C304.534 69.1609 303.524 70.2937 302.301 71.0344C301.054 71.8019 299.599 72.1856 297.935 72.1856H297.934ZM297.934 67.917C299.15 67.917 300.123 67.4734 300.846 66.5739C301.579 65.6622 301.947 64.4987 301.947 63.0728V50.6736C301.947 49.2231 301.579 48.0474 300.846 47.1479C300.123 46.2546 299.152 45.8048 297.935 45.8048C296.755 45.8048 295.804 46.2546 295.086 47.1479C294.369 48.0412 294.006 49.2231 294.006 50.6736V63.0728C294.006 64.5002 294.365 65.6637 295.088 66.5739C295.805 67.4734 296.756 67.917 297.937 67.917H297.934Z" fill="#CD4B33"/>
<path d="M319.519 72.1381C317.908 72.1381 316.489 71.7727 315.257 71.0344C314.061 70.3315 313.07 69.239 312.408 67.8925C311.727 66.5371 311.389 64.9791 311.389 63.2155V50.4572C311.389 48.6997 311.727 47.1418 312.408 45.7803C313.073 44.4365 314.063 43.3449 315.257 42.6383C316.489 41.9061 317.908 41.5347 319.519 41.5347C321.131 41.5347 322.544 41.9061 323.781 42.6383C325.013 43.3582 325.97 44.3774 326.65 45.6836C327.33 46.9898 327.669 48.4894 327.669 50.1686V51.1525C327.669 51.2968 327.628 51.4165 327.544 51.5117C327.461 51.6069 327.357 51.656 327.233 51.656H323.824C323.701 51.6574 323.583 51.6059 323.491 51.5117C323.409 51.4165 323.366 51.2953 323.366 51.1525V50.1686C323.366 48.8916 323.012 47.8417 322.306 47.0266C321.61 46.2116 320.683 45.8033 319.519 45.8033C318.381 45.8033 317.46 46.2285 316.754 47.0742C316.047 47.9077 315.693 49.0113 315.693 50.3835V63.2861C315.693 64.6645 316.053 65.7742 316.775 66.62C317.508 67.4535 318.46 67.8679 319.624 67.8679C320.758 67.8679 321.667 67.4964 322.348 66.7413C323.024 65.9738 323.367 64.9362 323.367 63.6238V60.2669C323.367 60.1227 323.305 60.0505 323.18 60.0505H319.812C319.687 60.0505 319.583 60.0029 319.5 59.9062C319.419 59.8007 319.374 59.6639 319.375 59.5225V56.405C319.375 56.2608 319.417 56.141 319.5 56.0459C319.584 55.9507 319.688 55.9016 319.812 55.9016H327.234C327.359 55.9016 327.463 55.9492 327.546 56.0459C327.628 56.1426 327.671 56.2623 327.671 56.405V63.0728C327.671 65.9032 326.927 68.1273 325.446 69.7405C323.96 71.3414 321.983 72.1396 319.52 72.1396L319.519 72.1381Z" fill="#CD4B33"/>
<path d="M341.054 72.1856C339.431 72.1856 337.986 71.8019 336.729 71.0344C335.482 70.267 334.515 69.1818 333.839 67.7727C333.157 66.3514 332.819 64.7151 332.819 62.8563V50.8164C332.819 48.9821 333.157 47.3566 333.839 45.9476C334.503 44.5566 335.509 43.4222 336.729 42.6859C337.986 41.9184 339.431 41.5347 341.054 41.5347C342.717 41.5347 344.173 41.9184 345.42 42.6859C346.666 43.4533 347.634 44.5447 348.331 45.9476C349.028 47.3505 349.37 48.9821 349.37 50.8164V62.8563C349.37 64.7151 349.022 66.3514 348.331 67.7727C347.654 69.1609 346.643 70.2937 345.421 71.0344C344.174 71.8019 342.718 72.1856 341.055 72.1856H341.054ZM341.054 67.917C342.27 67.917 343.243 67.4734 343.965 66.5739C344.698 65.6622 345.067 64.4987 345.067 63.0728V50.6736C345.067 49.2231 344.698 48.0474 343.965 47.1479C343.243 46.2546 342.271 45.8048 341.055 45.8048C339.875 45.8048 338.923 46.2546 338.206 47.1479C337.489 48.0412 337.125 49.2231 337.125 50.6736V63.0728C337.125 64.5002 337.485 65.6637 338.207 66.5739C338.924 67.4734 339.876 67.917 341.056 67.917H341.054Z" fill="#CD4B33"/>
</svg>
