<svg width="625" height="114" viewBox="0 0 625 114" fill="none" xmlns="http://www.w3.org/2000/svg">
<g clip-path="url(#clip0_303_445)">
<mask id="mask0_303_445" style="mask-type:luminance" maskUnits="userSpaceOnUse" x="0" y="0" width="625" height="114">
<path d="M0.383545 0.430908H624.239V113.814H0.383545V0.430908Z" fill="white"/>
</mask>
<g mask="url(#mask0_303_445)">
<path d="M623.984 43.9949V70.2483H613.678V87.7023H603.372V96.3579H593.066V105.157H572.29V113.813H52.5031V105.157H31.8896V96.4955H21.5838V87.84H10.9447V70.2483H0.638916V43.9949H10.9447V26.6843H21.2506V18.029H31.5564V9.09233H52.3329V0.430908H572.125V9.09233H592.902V17.7476H603.207V26.4029H613.515V43.8573H623.984V43.9949Z" fill="#6D5656"/>
</g>
<path d="M10.9447 70.2483V43.9949L21.4208 26.6843L31.8896 17.8852L52.5031 9.09229H572.125L592.731 17.8852L603.207 26.6843L613.676 43.9949V70.2483L603.207 87.7024L592.731 96.4956L572.125 105.157H52.5031L31.8896 96.4956L21.4208 87.7024L10.9447 70.2483Z" fill="#F5F5DC"/>
<path d="M572.127 9.09229V17.7476H52.5031V9.09229H572.127ZM31.8896 26.6843H52.6661V18.029H31.8896V26.6843ZM52.5031 96.4956V87.84H31.8896V96.4956H52.5031ZM21.4208 43.9949H31.7266V26.6843H21.4208V43.9949ZM31.8896 87.7024V70.2483H21.5838V87.7024H31.8896ZM10.9447 70.2483H21.2505V43.9949H10.9447V70.2483Z" fill="white"/>
<mask id="mask1_303_445" style="mask-type:luminance" maskUnits="userSpaceOnUse" x="0" y="0" width="625" height="114">
<path d="M0.383545 0.430908H624.239V113.814H0.383545V0.430908Z" fill="white"/>
</mask>
<g mask="url(#mask1_303_445)">
<path d="M52.5031 17.8853H31.8896V9.09233H52.6661V17.8853H52.5031ZM31.8896 17.8853H21.5838V26.5467H31.8896V17.8853ZM21.4208 87.7023V96.3579H31.7267V87.7023H21.4208ZM31.8896 96.4955V105.157H52.6661V96.4955H31.8896ZM21.4208 26.6843H10.9447V44.1387H21.2506V26.6843H21.4208ZM10.9447 70.2483V87.7023H21.2506V70.2483H10.9447ZM0.638916 43.9949V70.2483H10.9447V43.9949H0.638916ZM572.127 105.157H592.903V96.4955H572.127V105.157ZM592.733 96.4955H603.039V87.84H592.733V96.4955ZM603.209 26.6843V18.029H592.903V26.6843H603.209ZM592.733 17.8853V9.09233H571.957V17.7476H592.733V17.8853ZM603.209 87.7023H613.515V70.2483H603.209V87.7023ZM613.678 43.9949V26.6843H603.372V44.1387H613.678V43.9949ZM613.678 43.9949V70.2483H623.984V43.9949H613.678ZM540.874 9.09233H572.127V0.430908H52.5031V9.09233H540.874ZM83.7557 105.157H52.5031V113.813H572.125L572.127 105.157H83.7557Z" fill="#6D5656"/>
</g>
<mask id="mask2_303_445" style="mask-type:luminance" maskUnits="userSpaceOnUse" x="0" y="0" width="623" height="115">
<path d="M0 0.844482H623V114.844H0V0.844482Z" fill="black" fill-opacity="0.298"/>
</mask>
<g mask="url(#mask2_303_445)">
<mask id="mask3_303_445" style="mask-type:luminance" maskUnits="userSpaceOnUse" x="51" y="17" width="566" height="92">
<path d="M51.1626 17.3245H616.164V108.221H51.1626V17.3245Z" fill="white"/>
</mask>
<g mask="url(#mask3_303_445)">
<mask id="mask4_303_445" style="mask-type:luminance" maskUnits="userSpaceOnUse" x="52" y="18" width="563" height="90">
<path d="M52.9735 18.865H614.353V107.679H52.9735V18.865Z" fill="white"/>
</mask>
<g mask="url(#mask4_303_445)">
<path d="M53.3411 98.9109H572.795V107.637H53.3411V98.9109ZM572.963 98.9109H593.74V90.1908H572.963V98.9109ZM572.963 19.7139V28.4399H593.74V19.7139H572.963ZM593.569 90.0521H603.875V72.4677H593.569V90.0521ZM593.569 28.5786V46.1632H603.875V28.5786H593.569ZM604.045 46.0183V72.4677H614.353V46.0183H604.045Z" fill="#6D5656"/>
</g>
</g>
</g>
<path d="M258.251 72.65C256.625 72.65 255.177 72.2663 253.917 71.4988C252.668 70.7314 251.699 69.6462 251.021 68.2372C250.339 66.8159 250 65.1797 250 63.321V51.2814C250 49.4472 250.339 47.8218 251.021 46.4128C251.688 45.0218 252.695 43.8875 253.917 43.1512C255.177 42.3837 256.625 42 258.251 42C259.917 42 261.376 42.3837 262.625 43.1512C263.875 43.9186 264.844 45.0099 265.543 46.4128C266.241 47.8157 266.584 49.4472 266.584 51.2814V63.321C266.584 65.1797 266.235 66.8159 265.543 68.2372C264.864 69.6254 263.852 70.7581 262.627 71.4988C261.377 72.2663 259.919 72.65 258.252 72.65H258.251ZM258.251 68.3815C259.469 68.3815 260.444 67.9379 261.168 67.0385C261.903 66.1268 262.272 64.9633 262.272 63.5374V51.1387C262.272 49.6882 261.903 48.5125 261.168 47.613C260.444 46.7197 259.471 46.27 258.252 46.27C257.069 46.27 256.116 46.7197 255.397 47.613C254.679 48.5063 254.315 49.6882 254.315 51.1387V63.5374C254.315 64.9649 254.675 66.1283 255.399 67.0385C256.117 67.9379 257.071 68.3815 258.253 68.3815H258.251Z" fill="#CD4B33"/>
<path d="M287.484 42.3362C287.609 42.3362 287.713 42.3838 287.796 42.4805C287.889 42.5772 287.941 42.6969 287.941 42.8397V46.1488C287.941 46.2808 287.889 46.4006 287.796 46.508C287.713 46.6047 287.608 46.6523 287.484 46.6523H281.735C281.609 46.6523 281.547 46.7244 281.547 46.8687V71.7629C281.547 71.9072 281.505 72.0269 281.421 72.1221C281.337 72.2172 281.233 72.2663 281.109 72.2663H277.693C277.57 72.2677 277.452 72.2163 277.36 72.1221C277.277 72.0269 277.235 71.9056 277.235 71.7629V46.8687C277.235 46.7244 277.172 46.6523 277.047 46.6523H271.525C271.403 46.6536 271.284 46.6022 271.192 46.508C271.109 46.4006 271.067 46.2808 271.067 46.1488V42.8397C271.067 42.6954 271.108 42.5757 271.192 42.4805C271.284 42.3863 271.403 42.3348 271.525 42.3362H287.484Z" fill="#CD4B33"/>
<path d="M304.739 42.8397C304.739 42.6954 304.78 42.5756 304.864 42.4805C304.948 42.3853 305.052 42.3362 305.176 42.3362H308.593C308.719 42.3362 308.823 42.3838 308.905 42.4805C308.988 42.5772 309.031 42.6969 309.031 42.8397V71.7629C309.031 71.9072 308.989 72.0269 308.905 72.122C308.821 72.2172 308.717 72.2663 308.593 72.2663H305.177C305.052 72.2663 304.948 72.2187 304.865 72.122C304.783 72.0253 304.74 71.9056 304.74 71.7629V59.6036C304.74 59.4593 304.677 59.3871 304.552 59.3871H297.489C297.364 59.3871 297.301 59.4593 297.301 59.6036V71.7629C297.301 71.9072 297.249 72.0269 297.156 72.122C297.073 72.2187 296.973 72.2663 296.864 72.2663H293.448C293.325 72.2677 293.206 72.2162 293.115 72.122C293.032 72.0269 292.989 71.9056 292.989 71.7629V42.8397C292.989 42.6954 293.031 42.5756 293.115 42.4805C293.206 42.3863 293.325 42.3348 293.448 42.3362H296.865C296.975 42.3362 297.073 42.3838 297.157 42.4805C297.251 42.5772 297.303 42.6969 297.303 42.8397V54.8546C297.303 54.9989 297.365 55.0711 297.491 55.0711H304.553C304.679 55.0711 304.741 54.9989 304.741 54.8546L304.739 42.8397Z" fill="#CD4B33"/>
<path d="M330.475 46.1011C330.475 46.2454 330.423 46.3651 330.329 46.4602C330.247 46.5569 330.147 46.6045 330.037 46.6045H319.704C319.579 46.6045 319.516 46.6767 319.516 46.8209V54.8545C319.516 54.9988 319.579 55.0709 319.704 55.0709H326.308C326.433 55.0709 326.537 55.1308 326.62 55.2382C326.713 55.3349 326.765 55.4546 326.765 55.5974V58.8344C326.765 58.9063 326.751 58.9774 326.726 59.0433C326.701 59.1092 326.665 59.1687 326.62 59.2182C326.537 59.3149 326.432 59.3624 326.308 59.3624H319.704C319.579 59.3624 319.516 59.4284 319.516 59.5543V67.7797C319.516 67.924 319.579 67.9961 319.704 67.9961H330.037C330.147 67.9961 330.245 68.0437 330.329 68.1404C330.423 68.2371 330.475 68.3568 330.475 68.4996V71.7612C330.475 71.9055 330.423 72.0252 330.329 72.1204C330.247 72.2171 330.147 72.2646 330.037 72.2646H315.663C315.54 72.266 315.421 72.2145 315.329 72.1204C315.247 72.0252 315.204 71.9039 315.204 71.7612V42.8379C315.204 42.6937 315.245 42.5739 315.329 42.4788C315.421 42.3846 315.54 42.3331 315.663 42.3345H330.037C330.147 42.3345 330.245 42.3821 330.329 42.4788C330.423 42.5755 330.475 42.6952 330.475 42.8379V46.1011Z" fill="#CD4B33"/>
<path d="M348.203 72.2665C347.921 72.2665 347.749 72.1222 347.681 71.8352L343.66 59.5562C343.619 59.4488 343.556 59.3889 343.472 59.3889H340.284C340.159 59.3889 340.096 59.461 340.096 59.6053V71.7646C340.096 71.9089 340.044 72.0286 339.951 72.1238C339.868 72.2205 339.768 72.2681 339.659 72.2681H336.243C336.12 72.2694 336.001 72.218 335.909 72.1238C335.827 72.0286 335.784 71.9074 335.784 71.7646V42.8414C335.784 42.6971 335.825 42.5774 335.909 42.4822C336.001 42.388 336.12 42.3366 336.243 42.3379H344.805C346.223 42.3379 347.472 42.7094 348.556 43.4415C349.649 44.1614 350.499 45.1867 351.097 46.5113C351.696 47.8359 351.993 49.3585 351.993 51.0683C351.993 52.9271 351.619 54.5402 350.868 55.9124C350.166 57.2398 349.094 58.2542 347.827 58.7903C347.701 58.8563 347.66 58.9576 347.701 59.1019L352.097 71.6695C352.124 71.7355 352.139 71.826 352.139 71.9334C352.139 72.1606 352.013 72.2696 351.764 72.2696L348.203 72.2665ZM340.287 46.6049C340.161 46.6049 340.099 46.677 340.099 46.8213V55.3353C340.099 55.4796 340.161 55.5517 340.287 55.5517H344.183C345.224 55.5517 346.063 55.1434 346.704 54.3284C347.355 53.5134 347.683 52.4344 347.683 51.0913C347.683 49.736 347.355 48.6447 346.704 47.8297C346.064 47.0147 345.225 46.6064 344.183 46.6064L340.287 46.6049Z" fill="#CD4B33"/>
<path d="M364.509 72.6025C362.869 72.6025 361.431 72.2664 360.197 71.5956C358.964 70.9249 358 69.9764 357.323 68.7423C356.64 67.496 356.301 66.0685 356.301 64.4492V63.3226C356.301 63.1784 356.343 63.0587 356.427 62.9635C356.511 62.8683 356.615 62.8192 356.739 62.8192H360.093C360.219 62.8192 360.323 62.8668 360.405 62.9635C360.488 63.0602 360.531 63.1799 360.531 63.3226V64.1868C360.531 65.4224 360.895 66.417 361.635 67.1844C362.385 67.9518 363.389 68.3356 364.656 68.3356C365.823 68.3356 366.708 67.9933 367.323 67.3041C367.948 66.6211 368.26 65.7217 368.26 64.6181C368.26 63.8506 368.083 63.1906 367.739 62.6273C367.395 62.064 366.895 61.5606 366.26 61.0925C365.635 60.6136 364.667 59.9766 363.364 59.1739L359.719 56.7518C358.803 56.032 358.021 55.1218 357.385 54.0182C356.76 52.9024 356.448 51.5425 356.448 49.9416C356.448 47.495 357.156 45.5641 358.573 44.1382C360 42.7169 361.885 42.0032 364.219 42.0032C365.812 42.0032 367.229 42.3562 368.469 43.0592C369.72 43.7483 370.677 44.7322 371.344 46.0092C372.011 47.2862 372.344 48.7612 372.344 50.422V51.3092C372.345 51.4506 372.3 51.5874 372.219 51.6929C372.136 51.7896 372.031 51.8372 371.907 51.8372H368.552C368.427 51.8372 368.323 51.7896 368.24 51.6929C368.158 51.5874 368.113 51.4506 368.115 51.3092V50.4941C368.115 49.2831 367.751 48.2762 367.032 47.472C366.313 46.6677 365.344 46.2732 364.136 46.2732C363.063 46.2732 362.22 46.5971 361.595 47.2325C360.98 47.8741 360.679 48.7612 360.679 49.894C360.679 50.6798 360.835 51.3445 361.157 51.8847C361.491 52.4127 361.98 52.9284 362.636 53.4196C363.287 53.9 364.281 54.5232 365.615 55.2906L369.552 58.0242C370.396 58.6842 371.115 59.5284 371.697 60.566C372.28 61.6036 372.572 62.8867 372.572 64.4032C372.572 66.9158 371.832 68.9127 370.364 70.3984C368.905 71.8735 366.952 72.6056 364.509 72.6056V72.6025Z" fill="#CD4B33"/>
</g>
<defs>
<clipPath id="clip0_303_445">
<rect width="625" height="114" fill="white"/>
</clipPath>
</defs>
</svg>
