<svg width="623" height="114" viewBox="0 0 623 114" fill="none" xmlns="http://www.w3.org/2000/svg">
<mask id="mask0_303_395" style="mask-type:luminance" maskUnits="userSpaceOnUse" x="0" y="0" width="623" height="114">
<path d="M0.382812 0H623V113.813H0.382812V0Z" fill="white"/>
</mask>
<g mask="url(#mask0_303_395)">
<path d="M622.745 43.7293V70.0823H612.46V87.6029H602.174V96.2911H591.889V105.123H571.154V113.812H52.399V105.123H31.8264V96.4292H21.541V87.7411H10.9231V70.0823H0.637695V43.7293H10.9231V26.353H21.2085V17.6649H31.4938V8.69429H52.2291V0H570.989V8.69429H591.725V17.3824H602.01V26.0706H612.297V43.5912H622.745V43.7293Z" fill="#6D5656"/>
</g>
<path d="M10.923 70.0821V43.7291L21.3783 26.3528L31.8263 17.5204L52.3989 8.69409H570.989L591.555 17.5204L602.01 26.3528L612.458 43.7291V70.0821L602.01 87.6027L591.555 96.429L570.989 105.123H52.3989L31.8263 96.429L21.3783 87.6027L10.923 70.0821Z" fill="#F5F5DC"/>
<path d="M570.991 8.69409V17.3822H52.3989V8.69409H570.991ZM31.8263 26.3528H52.5615V17.6647H31.8263V26.3528ZM52.3989 96.429V87.7409H31.8263V96.429H52.3989ZM21.3783 43.7291H31.6636V26.3528H21.3783V43.7291ZM31.8263 87.6027V70.0821H21.5409V87.6027H31.8263ZM10.923 70.0821H21.2084V43.7291H10.923V70.0821Z" fill="white"/>
<mask id="mask1_303_395" style="mask-type:luminance" maskUnits="userSpaceOnUse" x="0" y="0" width="623" height="114">
<path d="M0.382812 0H623V113.813H0.382812V0Z" fill="white"/>
</mask>
<g mask="url(#mask1_303_395)">
<path d="M52.399 17.5206H31.8264V8.69429H52.5616V17.5206H52.399ZM31.8264 17.5206H21.541V26.2149H31.8264V17.5206ZM21.3783 87.6029V96.2911H31.6637V87.6029H21.3783ZM31.8264 96.4292V105.123H52.5616V96.4292H31.8264ZM21.3783 26.353H10.9231V43.8736H21.2085V26.353H21.3783ZM10.9231 70.0823V87.6029H21.2085V70.0823H10.9231ZM0.637695 43.7293V70.0823H10.9231V43.7293H0.637695ZM570.991 105.123H591.726V96.4292H570.991V105.123ZM591.557 96.4292H601.842V87.7411H591.557V96.4292ZM602.012 26.353V17.6649H591.726V26.353H602.012ZM591.557 17.5206V8.69429H570.821V17.3824H591.557V17.5206ZM602.012 87.6029H612.297V70.0823H602.012V87.6029ZM612.46 43.7293V26.353H602.174V43.8736H612.46V43.7293ZM612.46 43.7293V70.0823H622.745V43.7293H612.46ZM539.801 8.69429H570.991V0H52.399V8.69429H539.801ZM83.5895 105.123H52.399V113.812H570.989L570.991 105.123H83.5895Z" fill="#6D5656"/>
</g>
<mask id="mask2_303_395" style="mask-type:luminance" maskUnits="userSpaceOnUse" x="0" y="0" width="622" height="115">
<path d="M0 0.415283H621.763V114H0V0.415283Z" fill="black" fill-opacity="0.298"/>
</mask>
<g mask="url(#mask2_303_395)">
<mask id="mask3_303_395" style="mask-type:luminance" maskUnits="userSpaceOnUse" x="51" y="16" width="564" height="92">
<path d="M51.061 16.835H614.941V107.4H51.061V16.835Z" fill="white"/>
</mask>
<g mask="url(#mask3_303_395)">
<mask id="mask4_303_395" style="mask-type:luminance" maskUnits="userSpaceOnUse" x="52" y="18" width="562" height="89">
<path d="M52.8683 18.3699H613.133V106.86H52.8683V18.3699Z" fill="white"/>
</mask>
<g mask="url(#mask4_303_395)">
<path d="M53.2351 98.1242H571.657V106.818H53.2351V98.1242ZM571.826 98.1242H592.561V89.4361H571.826V98.1242ZM571.826 19.2156V27.9099H592.561V19.2156H571.826ZM592.391 89.2979H602.676V71.7773H592.391V89.2979ZM592.391 28.048V45.5686H602.676V28.048H592.391ZM602.846 45.4243V71.7773H613.133V45.4243H602.846Z" fill="#6D5656"/>
</g>
</g>
</g>
<path d="M143.733 41.8235C145.172 41.8235 146.441 42.2011 147.537 42.9501C148.628 43.6869 149.481 44.7368 150.095 46.0921C150.703 47.4352 151.01 48.9824 151.01 50.7215C151.01 52.436 150.704 53.9479 150.096 55.2541C149.488 56.5603 148.63 57.5918 147.538 58.324C146.442 59.0438 145.188 59.403 143.775 59.403H139.222C139.097 59.403 139.034 59.4751 139.034 59.6194V71.2987C139.034 71.443 138.982 71.5627 138.889 71.6579C138.806 71.7546 138.701 71.8021 138.578 71.8021H135.168C135.043 71.8021 134.94 71.7546 134.857 71.6579C134.775 71.5612 134.732 71.4414 134.732 71.2987V42.3515C134.732 42.2072 134.773 42.0875 134.857 41.9923C134.941 41.8849 135.045 41.825 135.168 41.825L143.733 41.8235ZM143.109 55.4214C144.19 55.4214 145.053 55.007 145.707 54.175C146.373 53.3293 146.705 52.2088 146.705 50.8182C146.705 49.3799 146.373 48.2395 145.707 47.3891C145.053 46.5265 144.189 46.0937 143.109 46.0937H139.22C139.095 46.0937 139.033 46.1658 139.033 46.3101V55.2081C139.033 55.3523 139.095 55.4245 139.22 55.4245L143.109 55.4214Z" fill="#CD4B33"/>
<path d="M171.137 45.6359C171.137 45.7802 171.085 45.8999 170.992 45.995C170.909 46.0917 170.809 46.1393 170.7 46.1393H160.388C160.262 46.1393 160.2 46.2115 160.2 46.3558V54.3896C160.2 54.5338 160.262 54.606 160.388 54.606H166.978C167.104 54.606 167.207 54.6659 167.29 54.7733C167.383 54.87 167.435 54.9897 167.435 55.1325V58.3696C167.434 58.4415 167.421 58.5126 167.396 58.5785C167.371 58.6444 167.335 58.7039 167.29 58.7534C167.207 58.8501 167.102 58.8977 166.978 58.8977H160.388C160.262 58.8977 160.2 58.9637 160.2 59.0895V67.3152C160.2 67.4595 160.262 67.5316 160.388 67.5316H170.7C170.809 67.5316 170.908 67.5792 170.992 67.6759C171.085 67.7726 171.137 67.8923 171.137 68.0351V71.2968C171.137 71.4411 171.085 71.5608 170.992 71.656C170.909 71.7527 170.809 71.8002 170.7 71.8002H156.354C156.232 71.8016 156.113 71.7502 156.022 71.656C155.939 71.5608 155.896 71.4395 155.896 71.2968V42.3726C155.896 42.2283 155.938 42.1086 156.022 42.0135C156.113 41.9193 156.232 41.8678 156.354 41.8692H170.7C170.809 41.8692 170.908 41.9168 170.992 42.0135C171.085 42.1102 171.137 42.2299 171.137 42.3726V45.6359Z" fill="#CD4B33"/>
<path d="M188.83 71.8019C188.549 71.8019 188.377 71.6576 188.309 71.3706L184.296 59.0912C184.255 58.9837 184.192 58.9238 184.108 58.9238H180.927C180.802 58.9238 180.739 58.996 180.739 59.1403V71.3C180.739 71.4442 180.687 71.564 180.594 71.6591C180.512 71.7558 180.412 71.8034 180.303 71.8034H176.893C176.771 71.8048 176.652 71.7533 176.561 71.6591C176.478 71.564 176.436 71.4427 176.436 71.3V42.3758C176.436 42.2315 176.477 42.1118 176.561 42.0166C176.652 41.9224 176.771 41.871 176.893 41.8723H185.439C186.854 41.8723 188.1 42.2438 189.182 42.976C190.273 43.6958 191.121 44.7212 191.719 46.0458C192.316 47.3705 192.613 48.8931 192.613 50.603C192.613 52.4618 192.239 54.075 191.49 55.4472C190.789 56.7747 189.719 57.7891 188.454 58.3252C188.329 58.3912 188.288 58.4925 188.329 58.6368L192.717 71.2048C192.743 71.2708 192.758 71.3614 192.758 71.4688C192.758 71.696 192.633 71.805 192.384 71.805L188.83 71.8019ZM180.929 46.1394C180.804 46.1394 180.742 46.2116 180.742 46.3559V54.8701C180.742 55.0144 180.804 55.0865 180.929 55.0865H184.818C185.857 55.0865 186.694 54.6782 187.334 53.8632C187.983 53.0481 188.311 51.9691 188.311 50.626C188.311 49.2707 187.983 48.1794 187.334 47.3643C186.695 46.5493 185.858 46.141 184.818 46.141L180.929 46.1394Z" fill="#CD4B33"/>
<path d="M205.103 72.1382C203.466 72.1382 202.03 71.802 200.799 71.1312C199.568 70.4605 198.606 69.5119 197.93 68.2778C197.249 67.0315 196.911 65.604 196.911 63.9846V62.858C196.911 62.7137 196.952 62.594 197.036 62.4988C197.12 62.4037 197.224 62.3545 197.347 62.3545H200.695C200.821 62.3545 200.924 62.4021 201.007 62.4988C201.089 62.5955 201.132 62.7152 201.132 62.858V63.7221C201.132 64.9578 201.495 65.9524 202.234 66.7199C202.983 67.4873 203.985 67.8711 205.249 67.8711C206.413 67.8711 207.297 67.5288 207.91 66.8396C208.535 66.1565 208.846 65.2571 208.846 64.1535C208.846 63.386 208.669 62.726 208.326 62.1627C207.982 61.5993 207.483 61.0959 206.85 60.6277C206.226 60.1488 205.26 59.5118 203.96 58.7091L200.322 56.287C199.407 55.5671 198.628 54.6569 197.993 53.5533C197.369 52.4374 197.057 51.0774 197.057 49.4765C197.057 47.0298 197.764 45.0989 199.178 43.6729C200.602 42.2516 202.484 41.5378 204.813 41.5378C206.403 41.5378 207.817 41.8909 209.055 42.5939C210.303 43.2831 211.258 44.2669 211.924 45.544C212.589 46.8211 212.922 48.2961 212.922 49.9569V50.8441C212.923 50.9855 212.878 51.1224 212.797 51.2278C212.714 51.3245 212.609 51.3721 212.485 51.3721H209.137C209.012 51.3721 208.908 51.3245 208.826 51.2278C208.744 51.1224 208.7 50.9855 208.701 50.8441V50.0291C208.701 48.818 208.338 47.8111 207.62 47.0068C206.903 46.2025 205.936 45.808 204.73 45.808C203.659 45.808 202.818 46.1319 202.194 46.7673C201.58 47.4089 201.28 48.2961 201.28 49.4289C201.28 50.2148 201.435 50.8794 201.757 51.4197C202.09 51.9477 202.578 52.4635 203.233 52.9546C203.882 53.4351 204.875 54.0583 206.206 54.8257L210.135 57.5594C210.978 58.2194 211.695 59.0636 212.276 60.1013C212.858 61.1389 213.149 62.4221 213.149 63.9386C213.149 66.4512 212.411 68.4482 210.946 69.934C209.49 71.4091 207.54 72.1412 205.103 72.1412V72.1382Z" fill="#CD4B33"/>
<path d="M226.08 72.1859C224.458 72.1859 223.012 71.8021 221.755 71.0347C220.508 70.2672 219.541 69.182 218.865 67.773C218.183 66.3516 217.845 64.7154 217.845 62.8566V50.8166C217.845 48.9824 218.183 47.3569 218.865 45.9478C219.53 44.5568 220.535 43.4224 221.755 42.6861C223.012 41.9186 224.458 41.5349 226.08 41.5349C227.743 41.5349 229.199 41.9186 230.446 42.6861C231.692 43.4536 232.66 44.5449 233.357 45.9478C234.054 47.3508 234.396 48.9824 234.396 50.8166V62.8566C234.396 64.7154 234.048 66.3516 233.357 67.773C232.68 69.1612 231.669 70.2939 230.447 71.0347C229.2 71.8021 227.744 72.1859 226.081 72.1859H226.08ZM226.08 67.9172C227.296 67.9172 228.269 67.4737 228.991 66.5742C229.724 65.6624 230.093 64.499 230.093 63.073V50.6739C230.093 49.2234 229.724 48.0476 228.991 47.1481C228.269 46.2548 227.297 45.8051 226.081 45.8051C224.901 45.8051 223.949 46.2548 223.232 47.1481C222.515 48.0415 222.151 49.2234 222.151 50.6739V63.073C222.151 64.5005 222.511 65.664 223.233 66.5742C223.951 67.4737 224.902 67.9172 226.082 67.9172H226.08Z" fill="#CD4B33"/>
<path d="M252.885 42.3743C252.885 42.2301 252.926 42.1103 253.01 42.0152C253.101 41.921 253.22 41.8695 253.343 41.8709H256.753C256.878 41.8709 256.982 41.9185 257.065 42.0152C257.147 42.1119 257.19 42.2316 257.19 42.3743V71.2985C257.19 71.4428 257.148 71.5625 257.065 71.6577C256.981 71.7528 256.877 71.802 256.753 71.802H253.156C252.933 71.802 252.761 71.6761 252.636 71.4182L244.548 52.2562C244.507 52.1779 244.455 52.1488 244.403 52.161C244.351 52.1733 244.321 52.2455 244.321 52.3529L244.362 71.3C244.362 71.4443 244.321 71.564 244.237 71.6592C244.153 71.7544 244.049 71.8035 243.925 71.8035H240.516C240.394 71.8048 240.275 71.7534 240.184 71.6592C240.101 71.564 240.058 71.4428 240.058 71.3V42.3759C240.058 42.2316 240.1 42.1119 240.184 42.0167C240.275 41.9225 240.394 41.871 240.516 41.8724H244.072C244.322 41.8724 244.492 42.0044 244.592 42.2561L252.701 61.4903C252.753 61.587 252.805 61.6285 252.846 61.61C252.898 61.5978 252.93 61.5318 252.93 61.4182L252.885 42.3743Z" fill="#CD4B33"/>
<path d="M276.724 71.8021C276.459 71.8021 276.288 71.6578 276.204 71.3708L275.247 66.7906C275.217 66.6831 275.154 66.6233 275.06 66.6233H267.429C267.331 66.6233 267.268 66.6831 267.242 66.7906L266.306 71.3708C266.233 71.6594 266.061 71.8021 265.786 71.8021H262.272C261.95 71.8021 261.825 71.6225 261.898 71.2511L268.655 42.3039C268.677 42.1735 268.74 42.0573 268.833 41.9777C268.925 41.898 269.039 41.8606 269.154 41.8726H273.396C273.656 41.8726 273.833 42.0168 273.916 42.3039L280.654 71.2511L280.695 71.4184C280.695 71.6762 280.555 71.8021 280.28 71.8021H276.724ZM268.137 62.4728C268.107 62.5695 268.116 62.6401 268.159 62.6892C268.21 62.7245 268.262 62.7368 268.304 62.7368H274.167C274.219 62.7368 274.27 62.7245 274.312 62.6892C274.364 62.6416 274.38 62.5695 274.353 62.4728L271.318 48.442C271.287 48.3638 271.244 48.3223 271.193 48.3223C271.151 48.3223 271.114 48.3638 271.089 48.442L268.137 62.4728Z" fill="#CD4B33"/>
<path d="M285.862 71.802C285.739 71.8033 285.621 71.7519 285.529 71.6577C285.447 71.5625 285.404 71.4412 285.404 71.2985V42.3743C285.404 42.2301 285.446 42.1103 285.529 42.0152C285.621 41.921 285.739 41.8695 285.862 41.8709H289.273C289.382 41.8709 289.48 41.9185 289.564 42.0152C289.657 42.1119 289.709 42.2316 289.709 42.3743V67.3169C289.709 67.4612 289.772 67.5333 289.897 67.5333H300.084C300.21 67.5333 300.313 67.5809 300.396 67.6776C300.489 67.7743 300.541 67.894 300.541 68.0368V71.2985C300.541 71.4428 300.489 71.5625 300.396 71.6577C300.313 71.7544 300.208 71.802 300.084 71.802H285.862Z" fill="#CD4B33"/>
<path d="M327.445 71.8021C327.18 71.8021 327.008 71.6578 326.924 71.3708L325.968 66.7906C325.937 66.6831 325.874 66.6233 325.78 66.6233H318.15C318.051 66.6233 317.989 66.6831 317.962 66.7906L317.027 71.3708C316.954 71.6594 316.782 71.8021 316.506 71.8021H312.992C312.67 71.8021 312.545 71.6225 312.618 71.2511L319.375 42.3039C319.398 42.1735 319.461 42.0573 319.553 41.9777C319.645 41.898 319.76 41.8606 319.874 41.8726H324.117C324.376 41.8726 324.553 42.0168 324.637 42.3039L331.374 71.2511L331.415 71.4184C331.415 71.6762 331.276 71.8021 331 71.8021H327.445ZM318.858 62.4728C318.827 62.5695 318.836 62.6401 318.879 62.6892C318.931 62.7245 318.983 62.7368 319.024 62.7368H324.887C324.939 62.7368 324.991 62.7245 325.032 62.6892C325.084 62.6416 325.1 62.5695 325.073 62.4728L322.038 48.442C322.007 48.3638 321.965 48.3223 321.913 48.3223C321.872 48.3223 321.835 48.3638 321.809 48.442L318.858 62.4728Z" fill="#CD4B33"/>
<path d="M348.517 71.8019C348.237 71.8019 348.065 71.6576 347.997 71.3706L343.984 59.0912C343.942 58.9837 343.88 58.9238 343.796 58.9238H340.614C340.489 58.9238 340.427 58.996 340.427 59.1403V71.3C340.427 71.4442 340.375 71.564 340.282 71.6591C340.199 71.7558 340.099 71.8034 339.99 71.8034H336.581C336.459 71.8048 336.34 71.7533 336.248 71.6591C336.166 71.564 336.123 71.4427 336.123 71.3V42.3758C336.123 42.2315 336.165 42.1118 336.248 42.0166C336.34 41.9224 336.459 41.871 336.581 41.8723H345.127C346.541 41.8723 347.788 42.2438 348.87 42.976C349.961 43.6958 350.809 44.7212 351.406 46.0458C352.004 47.3705 352.301 48.8931 352.301 50.603C352.301 52.4618 351.927 54.075 351.177 55.4472C350.477 56.7747 349.407 57.7891 348.142 58.3252C348.017 58.3912 347.976 58.4925 348.017 58.6368L352.404 71.2048C352.431 71.2708 352.446 71.3614 352.446 71.4688C352.446 71.696 352.32 71.805 352.072 71.805L348.517 71.8019ZM340.617 46.1394C340.492 46.1394 340.429 46.2116 340.429 46.3559V54.8701C340.429 55.0144 340.492 55.0865 340.617 55.0865H344.505C345.545 55.0865 346.382 54.6782 347.022 53.8632C347.671 53.0481 347.998 51.9691 347.998 50.626C347.998 49.2707 347.671 48.1794 347.022 47.3643C346.383 46.5493 345.546 46.141 344.505 46.141L340.617 46.1394Z" fill="#CD4B33"/>
<path d="M372.712 41.8709C372.837 41.8709 372.941 41.9185 373.023 42.0152C373.116 42.1119 373.168 42.2316 373.168 42.3743V45.6836C373.168 45.8156 373.116 45.9354 373.023 46.0428C372.941 46.1395 372.836 46.1871 372.712 46.1871H366.974C366.849 46.1871 366.786 46.2592 366.786 46.4035V71.2985C366.786 71.4428 366.745 71.5625 366.661 71.6577C366.577 71.7528 366.474 71.802 366.35 71.802H362.941C362.818 71.8033 362.699 71.7519 362.608 71.6577C362.525 71.5625 362.483 71.4412 362.483 71.2985V46.4035C362.483 46.2592 362.42 46.1871 362.295 46.1871H356.785C356.662 46.1884 356.544 46.137 356.452 46.0428C356.37 45.9354 356.327 45.8156 356.327 45.6836V42.3743C356.327 42.2301 356.368 42.1103 356.452 42.0152C356.544 41.921 356.662 41.8695 356.785 41.8709H372.712Z" fill="#CD4B33"/>
<path d="M383.093 71.8019C382.853 71.8019 382.697 71.6576 382.615 71.3705L376.772 42.4234V42.256C376.772 42.0043 376.902 41.8723 377.167 41.8723H380.723C380.998 41.8723 381.164 42.0335 381.222 42.3528L384.652 61.0359C384.679 61.1203 384.715 61.1556 384.756 61.1556C384.808 61.1556 384.849 61.1019 384.881 60.9883L388.063 42.3528C388.089 42.035 388.256 41.8738 388.562 41.8738H391.785C392.044 41.8738 392.205 42.035 392.262 42.3543L395.714 61.0374C395.725 61.151 395.761 61.2047 395.818 61.2047C395.875 61.2047 395.906 61.151 395.922 61.0374L399.186 42.3543C399.238 42.0366 399.399 41.8754 399.664 41.8754H403.094C403.427 41.8754 403.557 42.0611 403.489 42.4264L397.959 71.326C397.918 71.6499 397.757 71.8065 397.481 71.8065H394.155C393.874 71.8065 393.718 71.6499 393.677 71.3276L390.268 52.0458C390.237 51.9675 390.194 51.9261 390.143 51.9261C390.101 51.9261 390.064 51.9675 390.039 52.0458L386.816 71.3291C386.785 71.653 386.628 71.8095 386.338 71.8095L383.093 71.8019Z" fill="#CD4B33"/>
<path d="M415.985 72.1859C414.362 72.1859 412.917 71.8021 411.66 71.0347C410.413 70.2672 409.446 69.182 408.77 67.773C408.088 66.3516 407.75 64.7154 407.75 62.8566V50.8166C407.75 48.9824 408.088 47.3569 408.77 45.9478C409.434 44.5568 410.44 43.4224 411.66 42.6861C412.917 41.9186 414.362 41.5349 415.985 41.5349C417.648 41.5349 419.104 41.9186 420.351 42.6861C421.597 43.4536 422.565 44.5449 423.262 45.9478C423.959 47.3508 424.301 48.9824 424.301 50.8166V62.8566C424.301 64.7154 423.953 66.3516 423.262 67.773C422.585 69.1612 421.574 70.2939 420.352 71.0347C419.105 71.8021 417.649 72.1859 415.986 72.1859H415.985ZM415.985 67.9172C417.201 67.9172 418.173 67.4737 418.896 66.5742C419.629 65.6624 419.998 64.499 419.998 63.073V50.6739C419.998 49.2234 419.629 48.0476 418.896 47.1481C418.173 46.2548 417.202 45.8051 415.986 45.8051C414.806 45.8051 413.854 46.2548 413.137 47.1481C412.42 48.0415 412.056 49.2234 412.056 50.6739V63.073C412.056 64.5005 412.416 65.664 413.138 66.5742C413.855 67.4737 414.807 67.9172 415.987 67.9172H415.985Z" fill="#CD4B33"/>
<path d="M442.393 71.8019C442.112 71.8019 441.941 71.6576 441.873 71.3706L437.86 59.0911C437.818 58.9837 437.756 58.9238 437.672 58.9238H434.49C434.365 58.9238 434.303 58.996 434.303 59.1403V71.2999C434.303 71.4442 434.251 71.564 434.158 71.6591C434.12 71.7049 434.075 71.7413 434.025 71.7661C433.975 71.7909 433.921 71.8036 433.866 71.8034H430.458C430.336 71.8048 430.217 71.7533 430.126 71.6591C430.085 71.6121 430.053 71.5561 430.031 71.4944C430.01 71.4326 429.999 71.3665 430.001 71.2999V42.3758C430.001 42.2315 430.042 42.1118 430.126 42.0166C430.217 41.9224 430.336 41.871 430.458 41.8723H439.004C440.419 41.8723 441.665 42.2438 442.747 42.9759C443.838 43.6958 444.686 44.7212 445.284 46.0458C445.881 47.3704 446.178 48.8931 446.178 50.603C446.178 52.4618 445.804 54.075 445.055 55.4472C444.354 56.7746 443.284 57.7891 442.019 58.3252C441.894 58.3912 441.853 58.4925 441.894 58.6368L446.282 71.2048C446.308 71.2708 446.323 71.3613 446.323 71.4688C446.323 71.696 446.198 71.8049 445.949 71.8049L442.393 71.8019ZM434.493 46.1394C434.368 46.1394 434.305 46.2116 434.305 46.3558V54.8701C434.305 55.0144 434.368 55.0865 434.493 55.0865H438.381C439.421 55.0865 440.258 54.6782 440.898 53.8632C441.547 53.0481 441.874 51.9691 441.874 50.626C441.874 49.2707 441.547 48.1794 440.898 47.3643C440.259 46.5493 439.422 46.141 438.381 46.141L434.493 46.1394ZM451.889 71.8019C451.766 71.8032 451.648 71.7518 451.556 71.6576C451.516 71.6106 451.483 71.5546 451.462 71.4928C451.44 71.4311 451.43 71.3649 451.431 71.2984V42.3743C451.431 42.23 451.473 42.1102 451.556 42.0151C451.648 41.9209 451.766 41.8694 451.889 41.8708H455.3C455.409 41.8708 455.507 41.9184 455.591 42.0151C455.684 42.1118 455.736 42.2315 455.736 42.3743V54.7013C455.736 54.7857 455.757 54.8394 455.799 54.8686C455.851 54.9039 455.908 54.8686 455.965 54.7734L463.554 42.2069C463.607 42.1023 463.683 42.0159 463.774 41.9567C463.866 41.8976 463.969 41.8679 464.074 41.8708H467.817C467.994 41.8708 468.114 41.9368 468.171 42.0627C468.239 42.1947 468.218 42.3451 468.109 42.5185L461.101 54.5339C461.085 54.6184 461.085 54.7135 461.101 54.8225L468.628 71.2033C468.671 71.2835 468.7 71.3734 468.712 71.4673C468.712 71.6944 468.587 71.8034 468.338 71.8034H464.553C464.44 71.8102 464.328 71.7771 464.231 71.7085C464.135 71.64 464.059 71.5393 464.013 71.4197L458.15 58.6844C458.119 58.5892 458.077 58.5401 458.025 58.5401C457.984 58.5401 457.932 58.5754 457.88 58.6368L455.821 61.9231C455.764 62.0367 455.739 62.1272 455.739 62.1871V71.3015C455.739 71.4458 455.687 71.5655 455.594 71.6607C455.556 71.7064 455.511 71.7428 455.461 71.7676C455.411 71.7924 455.357 71.8051 455.302 71.8049L451.889 71.8019Z" fill="#CD4B33"/>
<path d="M480.543 72.1382C478.906 72.1382 477.47 71.802 476.239 71.1312C475.008 70.4605 474.046 69.5119 473.37 68.2778C472.689 67.0315 472.351 65.604 472.351 63.9846V62.858C472.351 62.7137 472.392 62.594 472.476 62.4988C472.56 62.4037 472.664 62.3545 472.787 62.3545H476.135C476.261 62.3545 476.364 62.4021 476.447 62.4988C476.529 62.5955 476.572 62.7152 476.572 62.858V63.7221C476.572 64.9578 476.935 65.9524 477.674 66.7199C478.423 67.4873 479.425 67.8711 480.689 67.8711C481.853 67.8711 482.737 67.5288 483.35 66.8396C483.975 66.1565 484.286 65.2571 484.286 64.1535C484.286 63.386 484.109 62.726 483.766 62.1627C483.422 61.5993 482.923 61.0959 482.29 60.6277C481.666 60.1488 480.7 59.5118 479.4 58.7091L475.762 56.287C474.847 55.5671 474.068 54.6569 473.433 53.5533C472.809 52.4374 472.497 51.0774 472.497 49.4765C472.497 47.0298 473.204 45.0989 474.619 43.6729C476.042 42.2516 477.924 41.5378 480.253 41.5378C481.843 41.5378 483.257 41.8909 484.495 42.5939C485.743 43.2831 486.698 44.2669 487.364 45.544C488.029 46.8211 488.362 48.2961 488.362 49.9569V50.8441C488.363 50.9855 488.318 51.1224 488.237 51.2278C488.154 51.3245 488.049 51.3721 487.925 51.3721H484.577C484.452 51.3721 484.348 51.3245 484.266 51.2278C484.184 51.1224 484.14 50.9855 484.141 50.8441V50.0291C484.141 48.818 483.778 47.8111 483.06 47.0068C482.343 46.2025 481.376 45.808 480.17 45.808C479.099 45.808 478.258 46.1319 477.634 46.7673C477.02 47.4089 476.72 48.2961 476.72 49.4289C476.72 50.2148 476.875 50.8794 477.197 51.4197C477.53 51.9477 478.018 52.4635 478.673 52.9546C479.322 53.4351 480.315 54.0583 481.646 54.8257L485.575 57.5594C486.418 58.2194 487.135 59.0636 487.716 60.1013C488.298 61.1389 488.589 62.4221 488.589 63.9386C488.589 66.4512 487.851 68.4482 486.386 69.934C484.93 71.4091 482.981 72.1412 480.543 72.1412V72.1382Z" fill="#CD4B33"/>
</svg>
